<?xml version="1.0" encoding="utf-8"?>
<!-- Generator: Adobe Illustrator 16.0.0, SVG Export Plug-In . SVG Version: 6.00 Build 0)  -->
<!DOCTYPE svg PUBLIC "-//W3C//DTD SVG 1.1//EN" "http://www.w3.org/Graphics/SVG/1.1/DTD/svg11.dtd">
<svg version="1.1" id="Layer_1" xmlns="http://www.w3.org/2000/svg" xmlns:xlink="http://www.w3.org/1999/xlink" x="0px" y="0px"
	 width="48px" height="48px" viewBox="0 0 48 48" enable-background="new 0 0 48 48" xml:space="preserve">
<g>
	<circle cx="40.801" cy="46.2" r="1.8"/>
	<path d="M12,12c0,4.422,2.418,8.306,6,10.387c-4.109,1.05-7.925,3.128-10.95,6.093C2.587,32.854,0,38.948,0,45.148
		c-0.003,0.375,0.004,0.75,0.019,1.125C0.059,47.239,0.853,48,1.818,48h33.581c0.994,0.014,1.812-0.781,1.826-1.775
		c0.016-0.994-0.779-1.811-1.774-1.824h-0.052H3.675c0.201-4.94,2.313-9.848,5.887-13.352c3.757-3.683,9.111-5.85,14.438-5.85
		c5.328,0,10.68,2.167,14.438,5.85c3.758,3.684,5.963,8.907,5.963,14.102v0.02c0.002,0.316-0.006,0.641-0.02,0.956
		c-0.042,0.993,0.73,1.834,1.725,1.875s1.834-0.731,1.875-1.726c0.017-0.375,0.021-0.752,0.02-1.125
		c0.001-6.201-2.587-12.295-7.05-16.67c-3.024-2.965-6.843-5.043-10.95-6.093c3.581-2.081,6-5.965,6-10.387
		c0-6.607-5.395-12.001-12-12.001C17.394-0.001,12,5.393,12,12z M24,3.599c4.661,0,8.398,3.739,8.398,8.401
		c0,4.66-3.737,8.399-8.398,8.399S15.6,16.66,15.6,12C15.6,7.338,19.339,3.599,24,3.599z"/>
</g>
</svg>
