<?xml version="1.0" encoding="utf-8"?>
<!-- Generator: Adobe Illustrator 16.0.0, SVG Export Plug-In . SVG Version: 6.00 Build 0)  -->
<!DOCTYPE svg PUBLIC "-//W3C//DTD SVG 1.1//EN" "http://www.w3.org/Graphics/SVG/1.1/DTD/svg11.dtd">
<svg version="1.1" id="Layer_1" xmlns="http://www.w3.org/2000/svg" xmlns:xlink="http://www.w3.org/1999/xlink" x="0px" y="0px"
	 width="48px" height="48px" viewBox="0 0 48 48" enable-background="new 0 0 48 48" xml:space="preserve">
<path d="M44.868,12.001h-1.043c0-1.717-1.414-3.131-3.132-3.131H39.65V8.349c0-1.717-1.414-3.13-3.131-3.13H11.479
	c-1.716,0-3.13,1.413-3.13,3.13V8.87H7.305c-1.716,0-3.13,1.414-3.13,3.131H3.131c-1.716,0-3.13,1.414-3.13,3.13v17.738
	c0,1.716,1.414,3.13,3.13,3.13h1.043c0,1.716,1.414,3.131,3.13,3.131h1.043v0.521c0,1.718,1.414,3.132,3.13,3.132H36.52
	c1.715,0,3.131-1.414,3.131-3.132V39.13h1.043c1.718,0,3.132-1.415,3.132-3.131h1.043c1.717,0,3.131-1.414,3.131-3.13V15.131
	C47.999,13.415,46.585,12.001,44.868,12.001z M4.175,33.912H3.131c-0.596,0-1.043-0.447-1.043-1.043V15.131
	c0-0.596,0.447-1.043,1.043-1.043h1.043L4.175,33.912L4.175,33.912z M8.349,37.043H7.305c-0.596,0-1.043-0.447-1.043-1.044V12.001
	c0-0.596,0.447-1.044,1.043-1.044h1.043L8.349,37.043L8.349,37.043z M37.564,39.65c0,0.597-0.447,1.043-1.045,1.043H11.479
	c-0.596,0-1.043-0.446-1.043-1.043V8.349c0-0.596,0.447-1.043,1.043-1.043h25.042c0.597,0,1.043,0.447,1.043,1.043V39.65
	L37.564,39.65z M41.738,35.999c0,0.597-0.447,1.044-1.045,1.044H39.65V10.957h1.043c0.598,0,1.045,0.448,1.045,1.044V35.999z
	 M45.912,32.869c0,0.596-0.447,1.043-1.044,1.043h-1.043V14.088h1.043c0.597,0,1.044,0.447,1.044,1.043V32.869z"/>
</svg>
