<?xml version="1.0" encoding="utf-8"?>
<!-- Generator: Adobe Illustrator 16.0.0, SVG Export Plug-In . SVG Version: 6.00 Build 0)  -->
<!DOCTYPE svg PUBLIC "-//W3C//DTD SVG 1.1//EN" "http://www.w3.org/Graphics/SVG/1.1/DTD/svg11.dtd">
<svg version="1.1" id="Layer_1" xmlns="http://www.w3.org/2000/svg" xmlns:xlink="http://www.w3.org/1999/xlink" x="0px" y="0px"
	 width="48px" height="48px" viewBox="0 0 48 48" enable-background="new 0 0 48 48" xml:space="preserve">
<path d="M34.955,15.493c0.003-0.004-0.003-0.016,0-0.02c3.507-4.291,6.906-8.686,10.48-12.909c-4.222,3.571-8.606,6.973-12.89,10.48
	c-1.788-1.396-3.924-2.355-6.257-2.743L24-0.001l-2.29,10.303c-2.552,0.426-4.868,1.539-6.75,3.158L9.71,9.71l3.75,5.251
	c-1.619,1.882-2.733,4.197-3.158,6.75L-0.001,24l10.303,2.289c0.387,2.333,1.345,4.469,2.743,6.257
	C9.54,36.83,6.138,41.213,2.564,45.436c4.227-3.576,8.622-6.972,12.909-10.479c1.783,1.392,3.917,2.354,6.237,2.743L24,48.001
	l2.29-10.303c2.552-0.427,4.867-1.539,6.75-3.157l5.25,3.749l-3.75-5.25c1.619-1.884,2.731-4.198,3.157-6.751L48.001,24
	l-10.304-2.289C37.311,19.396,36.342,17.272,34.955,15.493z M37.402,10.598c-5.938,7.018-7.18,8.079-11.981,12.179
	c0.292,0.333,0.474,0.746,0.474,1.224c0,1.047-0.848,1.896-1.895,1.896s-1.895-0.85-1.895-1.896c0-1.046,0.848-1.895,1.895-1.895
	c0.468,0,0.893,0.192,1.223,0.474C29.323,17.778,30.385,16.536,37.402,10.598z M14.703,30.533c-1.295-1.85-2.072-4.1-2.072-6.533
	c0-6.294,5.075-11.369,11.369-11.369c2.432,0,4.688,0.779,6.533,2.073c-2.87,2.403-5.674,4.884-8.31,7.52
	C19.489,24.996,16.846,27.977,14.703,30.533z M24,35.369c-2.442,0-4.684-0.77-6.534-2.073c2.87-2.399,5.674-4.862,8.312-7.5
	c2.734-2.776,5.394-5.748,7.539-8.309c1.293,1.844,2.054,4.081,2.054,6.513C35.369,30.294,30.294,35.369,24,35.369z"/>
</svg>
