<?xml version="1.0" encoding="utf-8"?>
<!-- Generator: Adobe Illustrator 16.0.0, SVG Export Plug-In . SVG Version: 6.00 Build 0)  -->
<!DOCTYPE svg PUBLIC "-//W3C//DTD SVG 1.1//EN" "http://www.w3.org/Graphics/SVG/1.1/DTD/svg11.dtd">
<svg version="1.1" id="Layer_1" xmlns="http://www.w3.org/2000/svg" xmlns:xlink="http://www.w3.org/1999/xlink" x="0px" y="0px"
	 width="48px" height="48px" viewBox="0 0 48 48" enable-background="new 0 0 48 48" xml:space="preserve">
<g>
	<path fill="none" d="M32.646,9.229c-2.597,0-5.044,1.198-6.697,3.285L24,14.947l-1.948-2.433c-1.656-2.087-4.104-3.285-6.697-3.285
		c-4.729,0-8.583,3.852-8.583,8.578c0,2.582,3.029,5.866,4.089,6.813l0.056,0.048l0.053,0.053L24,37.752l13.03-13.031l0.052-0.053
		l0.052-0.048c1.063-0.947,4.092-4.23,4.092-6.813C41.228,13.081,37.371,9.229,32.646,9.229z"/>
	<path d="M32.654,6.768c-3.506,0-6.596,1.668-8.615,4.217c-0.015-0.015-0.028-0.03-0.04-0.043c-0.013,0.015-0.026,0.029-0.039,0.043
		c-2.023-2.548-5.112-4.217-8.617-4.217c-6.096,0-11.039,4.942-11.039,11.039c0,4.298,4.923,8.655,4.923,8.655L24,41.232
		l14.771-14.771c0,0,4.924-4.357,4.924-8.655C43.694,11.71,38.752,6.768,32.654,6.768z M37.136,24.62l-0.052,0.048l-0.053,0.053
		L24,37.752L10.97,24.721l-0.053-0.053l-0.056-0.048c-1.06-0.947-4.089-4.23-4.089-6.813c0-4.726,3.854-8.578,8.583-8.578
		c2.593,0,5.042,1.198,6.697,3.285L24,14.947l1.948-2.433c1.654-2.087,4.101-3.285,6.697-3.285c4.726,0,8.582,3.852,8.582,8.578
		C41.228,20.39,38.198,23.673,37.136,24.62z"/>
</g>
</svg>
