<?xml version="1.0" encoding="utf-8"?>
<!-- Generator: Adobe Illustrator 16.0.0, SVG Export Plug-In . SVG Version: 6.00 Build 0)  -->
<!DOCTYPE svg PUBLIC "-//W3C//DTD SVG 1.1//EN" "http://www.w3.org/Graphics/SVG/1.1/DTD/svg11.dtd">
<svg version="1.1" id="Layer_1" xmlns="http://www.w3.org/2000/svg" xmlns:xlink="http://www.w3.org/1999/xlink" x="0px" y="0px"
	 width="48px" height="48px" viewBox="0 0 48 48" enable-background="new 0 0 48 48" xml:space="preserve">
<path d="M34.793,0C15.608,0,0,15.608,0,34.794c0,19.185,15.608,34.794,34.793,34.794c19.186,0,34.795-15.609,34.795-34.794
	C69.588,15.608,53.979,0,34.793,0z M34.793,66.588C17.262,66.588,3,52.325,3,34.794S17.262,3,34.793,3
	c17.532,0,31.795,14.263,31.795,31.794C66.588,52.326,52.325,66.588,34.793,66.588z"/>
<rect x="33.293" y="28.496" width="3" height="20.625"/>
<path d="M34.793,18.007c-1.355,0-2.458,1.103-2.458,2.458c0,1.355,1.103,2.458,2.458,2.458s2.459-1.103,2.459-2.458
	C37.252,19.11,36.148,18.007,34.793,18.007z M34.793,21.007c-0.298,0-0.541-0.243-0.541-0.542c0-0.299,0.243-0.542,0.541-0.542
	c0.299,0,0.542,0.243,0.542,0.542C35.335,20.764,35.092,21.007,34.793,21.007z"/>
</svg>
