<?xml version="1.0" encoding="utf-8"?>
<!-- Generator: Adobe Illustrator 16.0.4, SVG Export Plug-In . SVG Version: 6.00 Build 0)  -->
<!DOCTYPE svg PUBLIC "-//W3C//DTD SVG 1.1//EN" "http://www.w3.org/Graphics/SVG/1.1/DTD/svg11.dtd">
<svg version="1.1" id="Calque_1" xmlns="http://www.w3.org/2000/svg" xmlns:xlink="http://www.w3.org/1999/xlink" x="0px" y="0px"
	 width="360.005px" height="360.001px" viewBox="69.998 19.998 360.005 360.001"
	 enable-background="new 69.998 19.998 360.005 360.001" xml:space="preserve">
<g>
	<g>
		<path d="M351.576,232.552l50.691-50.7c36.98-36.972,36.98-97.144,0-134.116c-36.976-36.984-97.144-36.984-134.119,0
			l-73.156,73.156c-36.98,36.972-36.98,97.144,0,134.116c5.46,5.465,11.436,10.096,17.76,13.944l39.164-39.168
			c-7.46-1.784-14.536-5.548-20.344-11.352c-16.808-16.808-16.808-44.16,0-60.964l73.157-73.156
			c16.808-16.808,44.159-16.808,60.964,0c16.808,16.808,16.808,44.156,0,60.964L344.2,166.772
			C353.056,187.616,355.504,210.54,351.576,232.552z"/>
	</g>
	<g>
		<path d="M148.428,167.448l-50.692,50.696c-36.984,36.976-36.984,97.144,0,134.12c36.972,36.98,97.144,36.98,134.12,0
			l73.152-73.156c36.98-36.976,36.977-97.144,0-134.115c-5.456-5.464-11.432-10.096-17.756-13.944l-39.164,39.168
			c7.456,1.788,14.532,5.544,20.344,11.352c16.809,16.808,16.809,44.156,0,60.964l-73.16,73.155
			c-16.808,16.809-44.156,16.809-60.964,0c-16.808-16.808-16.808-44.155,0-60.963l21.496-21.493
			C146.944,212.388,144.496,189.46,148.428,167.448z"/>
	</g>
</g>
</svg>
