<?xml version="1.0" encoding="utf-8"?>
<!-- Generator: Adobe Illustrator 16.0.0, SVG Export Plug-In . SVG Version: 6.00 Build 0)  -->
<!DOCTYPE svg PUBLIC "-//W3C//DTD SVG 1.1//EN" "http://www.w3.org/Graphics/SVG/1.1/DTD/svg11.dtd">
<svg version="1.1" id="Layer_1" xmlns="http://www.w3.org/2000/svg" xmlns:xlink="http://www.w3.org/1999/xlink" x="0px" y="0px"
	 width="48px" height="48px" viewBox="0 0 48 48" enable-background="new 0 0 48 48" xml:space="preserve">
<g>
	<path d="M36.652,3.6h7.749V1.199H32.4v12h2.398V5.288C41.387,9.09,45.601,16.159,45.601,24c0,11.933-9.668,21.601-21.601,21.601
		v2.4c13.256,0,24.001-10.745,24.001-24.001C48.001,15.549,43.595,7.908,36.652,3.6z"/>
	<path d="M8.119,42.001H1.201v2.4h12V32.4h-2.404v8.7C5.567,37.059,2.399,30.802,2.399,24C2.399,12.07,12.067,2.4,24,2.4v-2.401
		C10.743-0.001-0.001,10.745-0.001,24C-0.001,31.016,3.036,37.517,8.119,42.001z"/>
</g>
</svg>
