<?xml version="1.0" encoding="utf-8"?>
<!-- Generator: Adobe Illustrator 16.0.0, SVG Export Plug-In . SVG Version: 6.00 Build 0)  -->
<!DOCTYPE svg PUBLIC "-//W3C//DTD SVG 1.1//EN" "http://www.w3.org/Graphics/SVG/1.1/DTD/svg11.dtd">
<svg version="1.1" id="Layer_1" xmlns="http://www.w3.org/2000/svg" xmlns:xlink="http://www.w3.org/1999/xlink" x="0px" y="0px"
	 width="48px" height="48px" viewBox="0 0 48 48" enable-background="new 0 0 48 48" xml:space="preserve">
<g>
	<path d="M0,6.669v19.834c0,1.507,1.248,2.755,2.755,2.755h9.917c0.977,0,1.834-0.529,2.324-1.309
		c3.918,5.641,4.736,9.385,4.976,15.701c0.221,3.025,2.306,4.646,4.89,4.305c1.473-0.215,2.958-1.219,3.978-3.012
		c1.887-3.324,2.449-8.453,1.601-14.033h14.188c1.719-0.297,3.07-2.168,3.34-4.029c0.169-1.47-0.304-3.056-1.446-4.407
		c0.664-2.123,0.287-4.934-1.584-7.127c-0.106-0.132-0.243-0.24-0.396-0.311c0.373-1.991-0.206-4.299-1.808-6.301
		c-0.137-0.171-0.325-0.298-0.533-0.362c-0.424-1.882-1.354-3.556-3.495-5.302c-0.191-0.162-0.438-0.253-0.688-0.259
		C27.375,2.856,22.764,2.642,19.955,2.934c-1.405,0.144-2.432,0.471-3.34,1.015c-0.55,0.329-1.08,0.744-1.653,1.206
		c-0.497-0.746-1.339-1.239-2.29-1.239H2.754C1.248,3.915,0,5.162,0,6.669z M15.426,7.615c1.037-0.833,1.746-1.444,2.325-1.79
		c0.642-0.385,1.212-0.563,2.427-0.689c2.382-0.246,7.131-0.085,17.373-0.119c1.432,1.222,2.053,2.126,2.393,3.306h-3.047
		c-0.583-0.01-1.119,0.519-1.119,1.102c0,0.581,0.536,1.103,1.119,1.103h4.373c1.092,1.569,1.347,3.19,1.016,4.407h-5.389
		c-0.583-0.01-1.119,0.519-1.119,1.102c0,0.581,0.536,1.103,1.119,1.103h6.576c1.093,1.569,1.347,3.19,1.017,4.407h-7.593
		c-0.583-0.009-1.119,0.519-1.119,1.102c0,0.581,0.536,1.103,1.119,1.103h7.73c0.896,0.972,1.254,2.009,1.153,2.892
		c-0.105,0.911-0.638,1.642-1.464,2.066H29.2c-0.647-0.002-1.206,0.673-1.085,1.309c1.093,5.697,0.424,11.004-1.188,13.842
		c-0.586,1.211-1.774,2.04-2.841,1.929c-0.83-0.087-1.589-0.744-1.911-2.221c-0.253-6.78-1.629-12.255-6.749-18.768V7.615z
		 M2.203,6.669c0-0.324,0.227-0.551,0.551-0.551h9.917c0.324,0,0.551,0.227,0.551,0.551v19.834c0,0.324-0.227,0.551-0.551,0.551
		H2.754c-0.325,0-0.551-0.227-0.551-0.551V6.669z"/>
	<circle cx="7.713" cy="11.644" r="1.653"/>
</g>
</svg>
