<?xml version="1.0" encoding="utf-8"?>
<!-- Generator: Adobe Illustrator 16.0.0, SVG Export Plug-In . SVG Version: 6.00 Build 0)  -->
<!DOCTYPE svg PUBLIC "-//W3C//DTD SVG 1.1//EN" "http://www.w3.org/Graphics/SVG/1.1/DTD/svg11.dtd">
<svg version="1.1" id="Layer_1" xmlns="http://www.w3.org/2000/svg" xmlns:xlink="http://www.w3.org/1999/xlink" x="0px" y="0px"
	 width="48px" height="48px" viewBox="0 0 48 48" enable-background="new 0 0 48 48" xml:space="preserve">
<path d="M25.392,8.107c-8.776,0-15.893,7.116-15.893,15.892c0,0.968,0.098,1.909,0.265,2.829l-5.52-5.518l-1.406,1.404l7.946,7.948
	l0.006-0.008l0.696,0.701l0.698-0.701l0.006,0.008l7.945-7.948l-1.406-1.404l-6.666,6.667c-0.381-1.283-0.577-2.619-0.577-3.978
	c0-7.667,6.238-13.906,13.905-13.906c7.669,0,13.906,6.239,13.906,13.906c0,7.667-6.237,13.907-13.906,13.907v1.986
	c8.778,0,15.893-7.115,15.893-15.894C41.284,15.223,34.17,8.107,25.392,8.107z"/>
</svg>
