<?xml version="1.0" encoding="utf-8"?>
<!-- Generator: Adobe Illustrator 16.0.0, SVG Export Plug-In . SVG Version: 6.00 Build 0)  -->
<!DOCTYPE svg PUBLIC "-//W3C//DTD SVG 1.1//EN" "http://www.w3.org/Graphics/SVG/1.1/DTD/svg11.dtd">
<svg version="1.1" id="Layer_1" xmlns="http://www.w3.org/2000/svg" xmlns:xlink="http://www.w3.org/1999/xlink" x="0px" y="0px"
	 width="48px" height="48px" viewBox="0 0 48 48" enable-background="new 0 0 48 48" xml:space="preserve">
<path d="M18.892,34.074c3.265,0,6.277-1.084,8.696-2.915L38.735,42.29c0.317,0.32,0.739,0.479,1.157,0.479h0.006
	c0.419-0.002,0.839-0.16,1.157-0.479c0.637-0.638,0.637-1.683-0.001-2.319L29.962,28.896c2.091-2.504,3.351-5.725,3.351-9.241
	c0-7.966-6.456-14.422-14.421-14.422c-7.967,0-14.424,6.456-14.424,14.421C4.468,27.617,10.924,34.074,18.892,34.074z M18.892,8.144
	c6.354,0,11.509,5.152,11.509,11.51c0,6.355-5.153,11.51-11.509,11.51c-6.358,0-11.511-5.154-11.511-11.51
	C7.38,13.296,12.534,8.144,18.892,8.144z"/>
</svg>
