<?xml version="1.0" encoding="utf-8"?>
<!-- Generator: Adobe Illustrator 16.0.0, SVG Export Plug-In . SVG Version: 6.00 Build 0)  -->
<!DOCTYPE svg PUBLIC "-//W3C//DTD SVG 1.1//EN" "http://www.w3.org/Graphics/SVG/1.1/DTD/svg11.dtd">
<svg version="1.1" id="Layer_1" xmlns="http://www.w3.org/2000/svg" xmlns:xlink="http://www.w3.org/1999/xlink" x="0px" y="0px"
	 width="48px" height="48px" viewBox="0 0 48 48" enable-background="new 0 0 48 48" xml:space="preserve">
<path d="M41.25,26C40.561,26,40,26.561,40,27.25V40H8.5V8.5h12.75c0.689,0,1.25-0.561,1.25-1.25S21.939,6,21.25,6h-14
	C6.561,6,6,6.561,6,7.25v34c0,0.689,0.561,1.25,1.25,1.25h34c0.689,0,1.25-0.561,1.25-1.25v-14C42.5,26.561,41.939,26,41.25,26z"/>
<path d="M41.25,6h-10C30.561,6,30,6.561,30,7.25s0.561,1.25,1.25,1.25h6.986L26.364,20.362c-0.489,0.484-0.493,1.277-0.002,1.774
	c0.237,0.238,0.552,0.369,0.887,0.369c0.332,0,0.645-0.128,0.888-0.369L40,10.264v6.986c0,0.689,0.561,1.25,1.25,1.25
	s1.25-0.561,1.25-1.25v-10C42.5,6.561,41.939,6,41.25,6z"/>
</svg>
