<?xml version="1.0" encoding="utf-8"?>
<!-- Generator: Adobe Illustrator 19.2.0, SVG Export Plug-In . SVG Version: 6.00 Build 0)  -->
<svg version="1.1" id="Calque_1" xmlns="http://www.w3.org/2000/svg" xmlns:xlink="http://www.w3.org/1999/xlink" x="0px" y="0px"
	 viewBox="0 0 24 24" style="enable-background:new 0 0 24 24;" xml:space="preserve">
<style type="text/css">
	.st0{fill:#FFFFFF;}
</style>
<path class="st0" d="M5,17H0V7h5V17z M7,7v10l9,5V2L7,7z M18,9.1c0.7,0.7,1.2,1.8,1.2,2.9s-0.5,2.2-1.2,2.9l1.2,1.2
	c1.1-1.1,1.7-2.5,1.7-4.1c0-1.6-0.6-3.1-1.7-4.1C19.2,7.9,18,9.1,18,9.1z M20.1,7c1.3,1.3,2.1,3.1,2.1,5s-0.8,3.8-2.1,5l1.2,1.3
	C23,16.7,24,14.5,24,12c0-2.5-1-4.7-2.6-6.3C21.4,5.7,20.1,7,20.1,7z"/>
</svg>
