<?xml version="1.0" encoding="utf-8"?>
<!-- Generator: Adobe Illustrator 16.0.0, SVG Export Plug-In . SVG Version: 6.00 Build 0)  -->
<!DOCTYPE svg PUBLIC "-//W3C//DTD SVG 1.1//EN" "http://www.w3.org/Graphics/SVG/1.1/DTD/svg11.dtd">
<svg version="1.1" id="Calque_1" xmlns="http://www.w3.org/2000/svg" xmlns:xlink="http://www.w3.org/1999/xlink" x="0px" y="0px"
	 width="48px" height="48px" viewBox="1476 1476 48 48" enable-background="new 1476 1476 48 48" xml:space="preserve">
<g>
	<path d="M1500.6,1482.406l-8.553,0.16c-0.372-0.479-0.797-0.903-1.222-1.382c-2.018-2.071-4.515-3.665-7.277-4.674
		c-2.656-0.903-4.887-0.584-6.269,0.797c-1.381,1.381-1.7,3.612-0.797,6.269c0.956,2.762,2.603,5.206,4.674,7.224
		c0.425,0.425,0.904,0.85,1.381,1.222l-0.212,8.552l23.426,23.427l18.274-18.274L1500.6,1482.406z M1478.767,1478.847
		c0.797-0.797,2.284-0.903,4.144-0.318c2.391,0.849,4.516,2.283,6.322,4.09l-6.481,0.159l-0.159,6.481
		C1478.395,1485.062,1477.227,1480.44,1478.767,1478.847z M1484.451,1499.83l0.372-14.928l6.215-0.159
		c1.222,1.487,2.125,3.241,2.603,5.153c-2.709,0.584-4.409,3.241-3.825,5.95c0.584,2.709,3.24,4.409,5.95,3.825
		c2.709-0.584,4.409-3.24,3.825-5.95c-0.212-0.956-0.69-1.806-1.328-2.497l0,0c-0.691-0.69-1.541-1.115-2.444-1.328
		c-0.371-1.859-1.115-3.612-2.23-5.206l6.162-0.159l21.302,21.301l-15.3,15.3L1484.451,1499.83z M1496.775,1492.712
		c1.116,1.115,1.116,2.974-0.053,4.09c-1.115,1.116-2.975,1.116-4.09-0.053c-0.212-0.266-0.425-0.531-0.584-0.85
		c2.019-0.213,3.666-1.806,3.825-3.825C1496.244,1492.286,1496.509,1492.499,1496.775,1492.712z M1491.994,1493.827
		c0.266-0.85,0.956-1.487,1.753-1.753c-0.053,0.425-0.266,0.85-0.584,1.168C1492.844,1493.562,1492.419,1493.774,1491.994,1493.827
		L1491.994,1493.827z"/>
</g>
</svg>
