<?xml version="1.0" encoding="utf-8"?>
<!-- Generator: Adobe Illustrator 16.0.0, SVG Export Plug-In . SVG Version: 6.00 Build 0)  -->
<!DOCTYPE svg PUBLIC "-//W3C//DTD SVG 1.1//EN" "http://www.w3.org/Graphics/SVG/1.1/DTD/svg11.dtd">
<svg version="1.1" id="Layer_1" xmlns="http://www.w3.org/2000/svg" xmlns:xlink="http://www.w3.org/1999/xlink" x="0px" y="0px"
	 width="48px" height="48px" viewBox="0 0 48 48" enable-background="new 0 0 48 48" xml:space="preserve">
<g>
	<path d="M2.754,44.086h9.917c0.95,0,1.793-0.494,2.29-1.24c0.573,0.463,1.103,0.877,1.653,1.207
		c0.908,0.543,1.936,0.871,3.34,1.015c2.81,0.292,7.42,0.077,18.062,0.121c0.25-0.007,0.496-0.097,0.688-0.259
		c2.143-1.746,3.07-3.42,3.495-5.303c0.208-0.063,0.396-0.19,0.532-0.361c1.603-2.002,2.182-4.311,1.809-6.301
		c0.152-0.07,0.29-0.18,0.396-0.312c1.871-2.192,2.248-5.004,1.584-7.127c1.143-1.353,1.614-2.938,1.445-4.408
		c-0.27-1.861-1.621-3.732-3.34-4.029H30.439c0.849-5.58,0.285-10.708-1.602-14.032c-1.02-1.793-2.505-2.798-3.979-3.012
		c-2.583-0.342-4.668,1.279-4.889,4.304c-0.24,6.317-1.057,10.061-4.976,15.702c-0.49-0.78-1.347-1.309-2.324-1.309H2.754
		C1.248,18.742,0,19.99,0,21.497v19.834C0,42.838,1.248,44.086,2.754,44.086z M15.426,23.202c5.12-6.512,6.496-11.987,6.749-18.768
		c0.322-1.477,1.081-2.134,1.911-2.221c1.066-0.111,2.255,0.718,2.841,1.928c1.611,2.838,2.28,8.146,1.188,13.843
		c-0.121,0.635,0.438,1.31,1.085,1.309h15.116c0.826,0.424,1.357,1.155,1.463,2.066c0.102,0.883-0.258,1.92-1.152,2.893h-7.73
		c-0.582,0-1.119,0.521-1.119,1.103c0,0.583,0.537,1.11,1.119,1.102h7.594c0.33,1.218,0.076,2.839-1.018,4.407h-6.576
		c-0.582,0-1.119,0.521-1.119,1.104s0.537,1.11,1.119,1.102h5.39c0.331,1.217,0.075,2.838-1.017,4.407h-4.373
		c-0.582,0-1.119,0.521-1.119,1.103c0,0.583,0.537,1.111,1.119,1.102h3.047c-0.34,1.181-0.961,2.084-2.393,3.307
		c-10.24-0.034-14.99,0.127-17.373-0.119c-1.215-0.126-1.786-0.305-2.427-0.689c-0.579-0.346-1.288-0.957-2.325-1.789V23.202z
		 M2.203,21.497c0-0.324,0.227-0.551,0.551-0.551h9.917c0.324,0,0.551,0.227,0.551,0.551v19.834c0,0.324-0.227,0.552-0.551,0.552
		H2.754c-0.325,0-0.551-0.228-0.551-0.552V21.497z"/>
	<circle cx="7.713" cy="36.356" r="1.653"/>
</g>
</svg>
