<?xml version="1.0" encoding="utf-8"?>
<!-- Generator: Adobe Illustrator 16.0.0, SVG Export Plug-In . SVG Version: 6.00 Build 0)  -->
<!DOCTYPE svg PUBLIC "-//W3C//DTD SVG 1.1//EN" "http://www.w3.org/Graphics/SVG/1.1/DTD/svg11.dtd">
<svg version="1.1" id="Layer_1" xmlns="http://www.w3.org/2000/svg" xmlns:xlink="http://www.w3.org/1999/xlink" x="0px" y="0px"
	 width="48px" height="48px" viewBox="0 0 48 48" enable-background="new 0 0 48 48" xml:space="preserve">
<g>
	<polygon points="37.198,0.394 37.263,2.194 44.81,1.919 28.849,17.879 30.121,19.151 46.084,3.188 45.808,10.74 47.608,10.803 
		48.001,0.001 	"/>
	<polygon points="1.916,44.812 2.193,37.262 0.393,37.197 -0.001,48 10.801,47.607 10.738,45.807 3.191,46.082 19.152,30.122 
		17.879,28.848 	"/>
	<polygon points="28.849,30.122 44.812,46.084 37.262,45.808 37.197,47.607 47.999,48.001 47.606,37.199 45.807,37.264 
		46.082,44.81 30.12,28.849 	"/>
	<polygon points="0.394,10.802 2.194,10.738 1.918,3.191 17.879,19.152 19.152,17.879 3.188,1.917 10.739,2.193 10.803,0.392 
		0.001,-0.001 	"/>
</g>
</svg>
